<?xml version="1.0" encoding="UTF-8" standalone="no"?>
<!-- Created with Inkscape (http://www.inkscape.org/) -->

<svg
   width="297mm"
   height="210mm"
   viewBox="0 0 297 210"
   version="1.1"
   id="svg1"
   inkscape:version="1.4 (86a8ad7, 2024-10-11)"
   sodipodi:docname="manual-page-frame.svg"
   xmlns:inkscape="http://www.inkscape.org/namespaces/inkscape"
   xmlns:sodipodi="http://sodipodi.sourceforge.net/DTD/sodipodi-0.dtd"
   xmlns="http://www.w3.org/2000/svg"
   xmlns:svg="http://www.w3.org/2000/svg">
  <sodipodi:namedview
     id="namedview1"
     pagecolor="#ffffff"
     bordercolor="#000000"
     borderopacity="0.25"
     inkscape:showpageshadow="false"
     inkscape:pageopacity="0.0"
     inkscape:pagecheckerboard="0"
     inkscape:deskcolor="#d1d1d1"
     inkscape:document-units="mm"
     inkscape:zoom="0.71370861"
     inkscape:cx="386.71244"
     inkscape:cy="149.22056"
     inkscape:window-width="1704"
     inkscape:window-height="1341"
     inkscape:window-x="1699"
     inkscape:window-y="0"
     inkscape:window-maximized="0"
     inkscape:current-layer="layer4"
     showborder="false"
     borderlayer="false"
     showguides="true">
    <sodipodi:guide
       position="72.480586,209.80339"
       orientation="1,0"
       id="guide6"
       inkscape:locked="false" />
    <sodipodi:guide
       position="122.41748,249.71359"
       orientation="1,0"
       id="guide7"
       inkscape:locked="false" />
    <sodipodi:guide
       position="171.96117,226.51456"
       orientation="1,0"
       id="guide8"
       inkscape:locked="false" />
  </sodipodi:namedview>
  <defs
     id="defs1" />
  <g
     inkscape:label="Page Frame"
     inkscape:groupmode="layer"
     id="layer1"
     style="fill:#000000;fill-opacity:0">
    <rect
       style="fill:#000000;stroke:#5d5d5d;stroke-width:0.5;stroke-opacity:1;stroke-dasharray:none;fill-opacity:0"
       id="rect1"
       width="291.233"
       height="204.20387"
       x="2.8834951"
       y="3.4077671" />
    <circle
       id="path3"
       style="fill:#000000;stroke:none;stroke-width:0.264583"
       cx="2.8834951"
       cy="18.087379"
       r="0.75" />
    <path
       style="fill:none;fill-opacity:1;stroke:none;stroke-width:0.499999;stroke-dasharray:none"
       d="m 6.815534,20.774272 -2.0970874,1.63835"
       id="path4" />
    <path
       style="fill:#808080;fill-opacity:1;stroke:#5d5d5d;stroke-width:0.500319;stroke-dasharray:none;stroke-opacity:1"
       d="M 2.9657294,16.589549 H 294.16328"
       id="path5" />
  </g>
  <g
     inkscape:groupmode="layer"
     id="layer4"
     inkscape:label="Logo">
    <rect
       x="3.8310642"
       width="16.658358"
       height="11.312976"
       fill="#ffffff"
       stroke-linecap="round"
       stroke-linejoin="round"
       stroke-width="0.848475"
       style="display:inline;paint-order:fill markers stroke"
       id="rect1-3"
       y="4.4687457"
       inkscape:label="logo" />
    <path
       id="rect2"
       style="fill:#808080;fill-opacity:1;stroke:none;stroke-width:0.175238"
       inkscape:label="dart"
       d="m 21.808015,14.035995 c 0,0 38.068026,0.185109 40.09893,0.100488 2.157834,-0.126932 3.415734,-0.93612 4.283099,-1.78233 1.650108,-2.073214 2.450323,-3.0846753 -0.525144,-3.5261823 3.30423,-0.4667 3.538579,-1.750677 4.523452,-3.841159 -0.78952,2.808425 -0.635833,4.63047 -0.04092,5.8780073 -1.142385,-1.9885933 -2.790707,0.99812 -3.667777,2.114864 -0.751013,0.835633 -1.451796,1.80613 -3.482698,2.081147 -1.925129,0 -42.022267,-0.0079 -42.022267,-0.0079 z"
       sodipodi:nodetypes="cccccccccc"
       inkscape:transform-center-x="-0.2991801"
       inkscape:transform-center-y="-0.11967237" />
    <path
       d="m 14.267285,4.4687467 h 6.222137 V 15.781724 h -6.222137 z"
       fill="#007dba"
       id="path13"
       style="stroke:#ffffff;stroke-width:0.143397;stroke-dasharray:none;stroke-opacity:1;fill:#808080;fill-opacity:1"
       inkscape:label="logo13" />
    <path
       d="M 3.8310638,4.4687467 V 15.781724 L 13.767251,5.1831617 c 0.25394,-0.270966 0.06185,-0.71433 -0.309494,-0.714415 z"
       color="#000000"
       fill="#da291c"
       id="path14"
       style="stroke:#ffffff;stroke-width:0.143397;stroke-dasharray:none;stroke-opacity:1;fill:#808080;fill-opacity:1"
       inkscape:label="logo14" />
    <path
       id="path1"
       style="display:inline;fill:#808080;fill-opacity:1;stroke-width:0.162245"
       d="m 50.490747,4.4880747 c -0.584807,-0.04503 -1.31694,0.09691 -2.169523,0.464484 -2.061764,0.888874 -3.824364,3.352467 -2.973032,4.155375 l 0.148991,0.140628 h 0.174421 c 0.09592,0 0.249662,-0.02261 0.341698,-0.05018 l 0.167392,-0.05007 0.04851,0.04851 0.04851,0.04851 -0.284156,0.8708663 c -0.370183,1.134863 -0.487515,1.581992 -0.549572,2.094025 l -0.05085,0.420099 -0.13349,-0.0387 c -0.597825,-0.173667 -0.684665,0.751529 -0.09569,1.019412 0.908634,0.413268 4.310516,-2.306425 5.892311,-4.7106383 1.617979,-2.459207 1.188907,-4.27724 -0.565522,-4.412319 z M 34.21563,4.7935297 c -1.154443,0.01168 -2.688624,0.334157 -4.216709,0.942239 -3.601288,1.433086 -5.566058,3.428365 -4.059691,4.122812 l 0.213004,0.09825 0.965882,-0.0046 c 0.531224,-0.0025 1.526095,-0.01226 2.210788,-0.02152 l 1.244905,-0.01684 0.364896,0.07829 c 1.065629,0.2285533 1.120232,0.6363943 0.107283,0.8010533 -2.199417,0.357527 -4.013743,1.266201 -4.013743,2.010274 v 0.210997 l 0.117208,0.117097 c 0.158935,0.158937 0.316542,0.234838 0.62842,0.302667 1.267407,0.275645 3.206518,-0.661646 4.257415,-2.057893 0.134482,-0.178676 0.247097,-0.325016 0.250141,-0.325194 0.003,-1.83e-4 0.303286,-0.05816 0.667229,-0.128807 0.363943,-0.07065 0.699429,-0.128472 0.745516,-0.128472 h 0.08375 l -0.02743,0.09658 c -0.266422,0.936356 -0.241034,1.363007 0.08119,1.363007 0.198807,0 0.268572,-0.08667 0.302332,-0.375602 0.04418,-0.378115 0.09968,-0.602654 0.195497,-0.790459 l 0.08743,-0.171296 0.09401,0.06167 c 0.738652,0.483849 1.170776,0.717769 1.479658,0.800942 l 0.180886,0.04862 0.08844,-0.04728 c 0.276752,-0.148114 0.161682,-0.386892 -0.320844,-0.665668 -1.040774,-0.601302 -1.042332,-0.603727 -0.486232,-0.74362 1.109931,-0.279215 1.705248,-0.6478693 1.468619,-0.9093413 -0.115668,-0.12781 -0.275797,-0.102539 -0.669682,0.10561 -0.481627,0.254519 -1.281932,0.5003383 -1.281932,0.39378 0,-0.201756 0.611879,-1.182187 1.467948,-2.352307 0.376448,-0.514556 0.701749,-0.995832 0.722879,-1.069485 l 0.03836,-0.133936 -0.06134,-0.118435 c -0.349871,-0.676582 -2.03891,1.291847 -2.963441,3.453575 l -0.248691,0.5814693 -0.175422,3.44e-4 c -0.09646,1.54e-4 -0.433122,0.03869 -0.748081,0.08576 -0.314956,0.04707 -0.580734,0.08565 -0.590726,0.08565 -0.01,0 -0.06314,-0.101671 -0.118102,-0.225941 -0.348634,-0.7883263 -1.309809,-1.0513543 -3.973818,-1.0873263 -1.948747,-0.02631 -2.091139,-0.08792 -1.516457,-0.656411 1.636556,-1.618952 5.146658,-3.059663 7.608835,-3.122928 l 0.837077,-0.02141 0.150329,0.07795 0.150219,0.07795 0.01338,0.163267 c 0.03739,0.453572 -0.550328,1.079052 -1.618724,1.722773 -0.641916,0.386763 -0.823694,0.669163 -0.552918,0.858821 0.132226,0.09262 0.129122,0.09373 0.429801,-0.160813 0.14788,-0.125189 0.394436,-0.31212 0.547899,-0.415415 0.781718,-0.526157 1.300576,-0.985882 1.569098,-1.390552 l 0.16728,-0.25226 0.01551,-0.284378 0.01562,-0.284378 -0.101931,-0.15033 c -0.256782,-0.378737 -0.924914,-0.557632 -1.822818,-0.548549 z m 16.405263,0.31605 0.169399,0.07472 c 0.260558,0.114871 0.447228,0.27595 0.521807,0.45021 l 0.0678,0.158359 -0.02587,0.327313 c -0.09171,1.158082 -1.208382,2.873876 -2.893071,4.4452183 -1.135437,1.05904 -1.745396,1.574889 -2.115105,1.788793 -0.299472,0.17327 -0.295,0.182867 -0.166724,-0.358316 0.323971,-1.366786 1.664751,-4.4866223 2.658099,-6.1852763 0.377029,-0.64473 0.472815,-0.69667 1.28996,-0.699347 z m -3.026561,1.013278 c 0.02101,-0.0074 -0.102783,0.291955 -0.275124,0.665333 -0.172342,0.373376 -0.404765,0.903527 -0.51645,1.178105 l -0.20308,0.499279 -0.178658,0.02465 c -0.09829,0.01358 -0.258775,0.03756 -0.356642,0.0532 l -0.177987,0.02844 -0.02732,-0.0862 c -0.05351,-0.168584 0.237609,-0.823405 0.552027,-1.241673 0.17079,-0.227205 1.07316,-1.08221 1.183235,-1.121118 z m 12.8134,0.221926 c -0.149809,0.02923 -0.314918,0.213542 -0.514334,0.564184 -0.134274,0.2361 -0.300596,0.518465 -0.369691,0.627416 l -0.125683,0.198061 -1.322189,0.02007 -1.322303,0.02007 -0.16873,0.0823 -0.168733,0.08241 -0.01306,0.135051 -0.01317,0.135164 0.120442,0.04394 0.120443,0.04394 -0.120889,0.0033 c -0.300956,0.0084 -0.589465,0.53554 -1.055321,1.9283063 -0.334645,1.000491 -1.192102,1.69553 -1.648722,1.336353 -0.229431,-0.18047 -0.203835,-0.51375 0.102153,-1.32654 0.193983,-0.5152813 0.202035,-0.5927303 0.07773,-0.7507573 l -0.09078,-0.115536 -0.113082,0.01316 -0.11308,0.01305 -0.142972,0.214677 c -0.182089,0.273413 -0.186332,0.274099 -0.296422,0.04751 l -0.09223,-0.18992 -0.135277,-0.02966 C 52.092266,9.2415577 50.587821,11.056 51.000817,11.854642 c 0.268403,0.519039 0.645685,0.427522 1.401481,-0.339804 0.594788,-0.603856 0.583021,-0.600693 0.56675,-0.152225 l -0.01292,0.354189 0.07728,0.149438 c 0.04249,0.08217 0.14293,0.193203 0.223152,0.246796 l 0.145869,0.09747 h 0.254604 c 0.357374,0 1.169028,-0.346902 1.297319,-0.554481 0.06706,-0.108514 0.101157,-0.02676 0.116651,0.280028 l 0.01652,0.326645 0.119329,0.10271 c 0.248811,0.214018 0.425806,0.110533 0.632321,-0.36958 0.388295,-0.902707 1.145015,-2.0175223 1.369477,-2.0175223 h 0.0726 l 0.0041,0.2724463 c 0.0088,0.579366 0.342332,0.929277 0.768044,0.805626 l 0.13494,-0.03926 0.0175,0.457235 0.01739,0.457124 0.09234,0.176537 c 0.359247,0.686881 2.189917,-0.173963 2.774637,-1.304681 l 0.06903,-0.133379 -0.04171,-0.109736 c -0.06748,-0.177472 -0.160033,-0.132327 -0.605449,0.295195 -0.520734,0.499815 -0.945408,0.824997 -1.162156,0.889936 l -0.164829,0.0494 -0.091,-0.08186 -0.09111,-0.08197 0.0213,-0.345938 0.0213,-0.345937 0.25962,-0.777969 c 0.142827,-0.4278663 0.370848,-1.0420043 0.50664,-1.3647913 l 0.246905,-0.586823 0.09959,-0.0455 c 0.06888,-0.03139 0.301705,-0.03267 0.754326,-0.0042 0.360069,0.02263 0.699458,0.02568 0.754215,0.0068 l 0.09959,-0.03424 -0.01372,-0.09613 c -0.02137,-0.149836 -0.197153,-0.202642 -0.807523,-0.242446 -0.705671,-0.04602 -0.691104,-0.02908 -0.451546,-0.524594 0.107709,-0.222791 0.207663,-0.477427 0.222037,-0.565968 l 0.0261,-0.161036 -0.07684,-0.08487 c -0.08302,-0.09174 -0.167395,-0.130061 -0.257279,-0.112524 z m -1.490362,1.849349 c 0.174278,0.0041 0.224602,0.02749 0.224602,0.07193 0,0.02537 -0.145248,0.392522 -0.322852,0.815886 -0.1776,0.423364 -0.36748,0.906828 -0.421884,1.0743913 -0.07033,0.216611 -0.129008,0.321357 -0.202967,0.362331 -0.143386,0.07943 -0.380523,0.07719 -0.405824,-0.0038 -0.01106,-0.03542 -0.03072,-0.0975 -0.04372,-0.137951 -0.01299,-0.04045 0.0096,-0.281472 0.05019,-0.5356343 l 0.07383,-0.462142 -0.04952,-0.108845 c -0.02728,-0.05988 -0.09951,-0.131587 -0.160479,-0.159363 l -0.110852,-0.05052 -0.136612,0.07416 c -0.07515,0.04078 -0.338713,0.265758 -0.585707,0.499947 -0.514644,0.4879633 -0.518213,0.4892073 -0.363671,0.123119 0.06338,-0.150121 0.181098,-0.454387 0.261517,-0.676039 l 0.146206,-0.402924 -0.04762,-0.143974 c -0.02613,-0.07919 -0.07978,-0.162943 -0.119327,-0.186016 l -0.07193,-0.04193 0.159251,-0.0013 c 0.08759,-7.1e-4 0.609148,-0.03099 1.159036,-0.06736 0.495855,-0.03279 0.794058,-0.04803 0.968334,-0.04394 z M 40.9042,9.2254767 c -0.149816,-0.03167 -0.413296,0.169466 -1.337135,0.9027613 -1.299674,1.031614 -1.517035,1.180782 -1.720541,1.180782 h -0.09368 l 0.02353,-0.175422 c 0.01294,-0.09649 0.150922,-0.42972 0.306568,-0.740498 0.350089,-0.6990173 0.342866,-0.8870363 -0.03379,-0.8870363 h -0.12802 l -0.185124,0.193265 C 37.138901,10.3225 36.899895,11.677249 37.345014,11.91547 c 0.370645,0.198364 0.858655,-0.06453 2.307477,-1.243345 0.294859,-0.239908 0.568109,-0.436269 0.607231,-0.436269 h 0.07115 l -0.318502,0.740498 c -0.707609,1.645113 -1.470269,3.068758 -1.724,3.218266 l -0.125349,0.07383 -0.09591,-0.102042 c -0.05274,-0.05614 -0.181246,-0.350077 -0.285603,-0.653289 -0.336847,-0.978731 -0.412,-1.085239 -0.725443,-1.026437 l -0.157022,0.02944 -0.06647,0.158471 -0.06658,0.158359 0.02387,0.38642 c 0.05253,0.852603 0.474506,1.669062 0.974246,1.884924 0.758746,0.327735 1.128169,-0.178173 2.598991,-3.559186 0.792367,-1.8214403 0.851916,-2.0180283 0.673251,-2.2214933 -0.04495,-0.05119 -0.08221,-0.08758 -0.132151,-0.09814 z m 12.126547,0.676708 c 0.05994,-0.0013 0.114958,0.01645 0.170627,0.05754 -0.192327,0.6782293 -0.445577,0.6011663 -0.656969,0.9415703 0,0 -0.118466,0.211189 -0.380423,0.426169 0,0 -0.309772,0.352465 -0.639213,0.301504 -0.331264,-0.195476 -0.05957,-0.547678 -0.05957,-0.547678 0.238869,-0.344775 0.403881,-0.561706 0.73873,-0.83263 0.422406,-0.227625 0.646975,-0.3426663 0.826815,-0.3464803 z M 31.295795,11.266084 h 0.208989 l -0.181668,0.21702 c -0.510607,0.609864 -1.70101,1.291262 -2.530851,1.448766 -1.242545,0.235836 -1.616141,-0.166418 -0.643811,-0.693102 0.728952,-0.39485 2.598612,-0.972684 3.147341,-0.972684 z"
       sodipodi:nodetypes="ssccsccccccccsssssccccccssccsssssccssccccccssssssccccccsscsccccccsssccccccscccccssssccsssccsccsssscccccccccccsssccccscccssccsccsssccsscsccccscccscccccccccccccssscccssssssssccccccssccccccssssscsssccssscscccscccccsssssccccccssccsss"
       inkscape:label="skydarttext" />
    <path
       style="fill:#808080;fill-opacity:1;stroke:#5d5d5d;stroke-width:0.504999;stroke-dasharray:none;stroke-opacity:1"
       d="M 72.611651,3.342233 V 16.645631"
       id="path6" />
    <path
       style="fill:#808080;fill-opacity:1;stroke:#5d5d5d;stroke-width:0.504999;stroke-dasharray:none;stroke-opacity:1"
       d="M 122.26136,3.4395832 V 16.742981"
       id="path6-3" />
    <path
       style="fill:#808080;fill-opacity:1;stroke:#5d5d5d;stroke-width:0.504999;stroke-dasharray:none;stroke-opacity:1"
       d="M 193.61977,3.3289577 V 16.632356"
       id="path6-34" />
  </g>
</svg>
